PathFileType	4	(X/Y/Z)	OpenSim_Sub03_EMGStiffKnee_Accel.trc
DataRate	CameraRate	NumFrames	NumMarkers	Units	OrigDataRate	OrigDataStartFrame	OrigNumFrames
100	100	27	8	m	100	4749	7597
Frame#	Time	torso_imu_offset_imu	pelvis_imu_offset_imu	tibia_r_imu_offset_imu	femur_r_imu_offset_imu	tibia_l_imu_offset_imu	femur_l_imu_offset_imu	toes_r_imu_offset_imu	toes_l_imu_offset_imu
				X1	Y1	Z1	X2	Y2	Z2	X3	Y3	Z3	X4	Y4	Z4	X5	Y5	Z5	X6	Y6	Z6	X7	Y7	Z7	X8		Y8	Z8	

4749	47.48000000	15.64741929	3.04371451	6.13414946	16.63718545	-5.20878178	7.47158947	13.96637886	-3.43362062	1.81966305	12.47560710	-2.02453001	0.15555509	19.40942642	0.23756339	3.51856706	15.25428672	0.12308974	-1.43954508	6.85754118	-4.79607135	8.49679939	25.51860109	4.36303734	15.72553868
4750	47.49000000	14.35869840	2.92105383	6.00611518	19.20910431	-5.34938536	6.91441709	14.07594373	-2.58024534	1.61868898	12.62165739	-2.20818898	0.57924945	12.01981876	-7.20484113	-1.38161431	11.68473177	-2.87944807	-1.89578331	6.84416088	-4.68437195	9.32855010	11.35924127	-4.90267848	11.50272680
4751	47.50000000	12.68833174	3.26696835	5.90286179	18.00640622	-2.23704331	6.33174252	14.78959366	-2.03392679	1.95145036	12.93706144	-1.87284226	1.30456505	8.38669085	-13.71208568	-5.85673654	8.97490661	-3.91776480	-2.18546788	7.17090396	-5.24831008	9.36952419	8.07559902	-1.60952048	9.41141373
4752	47.51000000	11.59536454	4.01879236	5.86153784	14.27571232	1.05867058	5.49523145	15.36223172	-1.70070342	2.16582604	12.19528865	-1.49258686	1.61808332	9.57097739	-15.23628798	-3.89801306	8.84300294	-4.96763220	-1.11891240	7.82161888	-4.71668494	9.41077445	8.44296716	0.36628030	10.83106276
4753	47.52000000	10.99921355	4.47968177	5.68517056	11.53112597	3.15464130	4.61652517	14.76576211	-1.86320190	1.75718816	11.64151536	-0.64987502	2.08151218	9.38360326	-12.21666368	-0.92478349	9.60928747	-5.47614796	-1.07889244	8.69180179	-3.58212201	10.49775693	5.87092037	0.76304142	11.03763049
4754	47.53000000	10.90623235	4.80033433	5.34826031	10.24595796	3.93825118	4.12412853	12.59582889	-1.29988653	1.31196802	11.94263819	0.85618301	3.67132221	8.46485643	-6.80589505	1.67891948	10.12050441	-4.86116688	-2.69882022	11.56912362	-6.14769448	10.83742373	5.47342825	1.65916060	11.39921957
4755	47.54000000	10.67278921	4.82790737	4.89977745	9.70306156	3.12195324	4.07084595	11.11522091	1.02820292	-1.39250692	11.66858634	1.76369787	3.30052237	10.16158913	-2.92957095	1.67612318	10.43724867	-4.80672476	-3.08853960	12.62348632	-6.41559411	10.90739476	5.94282002	1.80465302	11.04247459
4756	47.55000000	10.05555339	4.24707192	4.48325334	9.27153135	1.11474365	4.33440459	10.35238233	4.52767672	-3.64437293	10.86517422	1.49730582	3.65848507	10.99632226	-3.43856242	-0.34297900	9.64191498	-4.93582220	-2.98311959	13.43881569	-2.93952845	10.80158832	6.05528137	1.89816815	10.43078446
4757	47.56000000	9.22319073	3.54730531	4.20766761	8.63725394	-1.16735287	4.49215096	10.83229096	6.80104410	-2.60011448	11.28656563	1.49700770	5.24025706	9.39645835	-4.34880571	-1.12205422	9.17693449	-3.98048389	-3.19855893	14.43336531	-3.53056148	9.87243489	6.21042152	1.21652058	10.31756450
4758	47.57000000	8.27870891	2.82056187	4.09119937	8.01890497	-2.96318662	4.27719653	11.19899411	8.93972374	-1.95774695	11.36412752	1.40728405	4.78147806	9.46396778	-4.18426501	-0.80384386	9.48156428	-1.93150849	-2.86419502	15.20216882	-3.07909148	10.82162800	5.98981171	1.14870070	10.55160911
4759	47.58000000	7.63568522	2.41875594	4.13634773	7.74163894	-4.10982189	3.87947867	10.27363022	11.75299297	-1.65215125	11.09932657	0.65538855	2.57220003	10.38975954	-3.18506255	-0.69868169	9.57550603	-0.16519713	-2.44158253	14.62394246	-3.13185392	18.86552887	5.52660181	1.77756935	10.82259550
4760	47.59000000	7.35761577	2.42023559	4.25443302	7.70681123	-4.67928369	3.59529553	8.51899983	12.82811906	-3.05552211	11.22461340	-0.59090028	2.07365263	10.03861825	-1.55081902	-1.09482694	9.45199027	-0.03457310	-1.93239774	1.95472604	-11.28588824	12.34934129	5.29256435	2.31632996	10.90874168
4761	47.60000000	7.28349950	2.43037625	4.28196234	8.21269517	-4.67425605	3.40706909	7.70386469	7.44124188	1.00038146	10.77758890	-1.27636777	3.09615191	9.60216793	-0.56662890	-1.24603556	9.41913110	-0.87921806	-1.19738960	1.36429936	-13.81853725	9.36477888	5.52302228	2.28652945	10.82042768
4762	47.61000000	7.29456676	2.36149840	4.33773611	8.87401983	-4.13232651	3.46843148	5.76380678	0.54519831	3.42821509	9.67824330	-0.89409114	3.31298851	10.18798426	0.24019711	-0.25002028	9.47483811	-1.50986765	-0.94877121	2.14511739	-11.16247916	9.08872251	5.64329891	1.65230429	10.61518751
4763	47.62000000	7.17169204	2.23429009	4.36089253	9.46146795	-3.24729315	3.56429202	3.34489787	-1.17256542	1.43256212	8.93058085	-0.35466350	2.69031565	10.29378160	1.05383206	0.51822805	9.27403173	-1.75853939	-1.20349351	1.06883193	-8.69846324	8.42759899	5.36688476	1.48259722	10.82705179
4764	47.63000000	6.93350176	2.27136574	4.45492420	9.67917222	-2.42029495	3.55087202	3.65802747	-1.02831678	1.95417149	8.45122659	-0.25288697	2.29730482	9.73838263	1.37256367	0.87358112	9.26574305	-1.77935901	-1.38758510	0.17590459	-6.67234767	8.19627742	5.56186602	1.36538908	10.72198873
4765	47.64000000	6.85809820	2.40429468	4.48749743	9.66791475	-1.22227918	3.69883720	5.17372441	0.38640051	2.09895651	8.11664676	-0.28472097	2.19657570	9.53324636	1.34308965	0.95751842	9.27086645	-1.30607696	-1.26043148	0.21751190	-5.36011827	8.30027187	5.68017776	1.22273276	10.57601437
4766	47.65000000	7.08710625	2.37014888	4.52185529	9.21928616	-0.33490900	3.83314040	5.94986194	2.77174402	1.98968593	8.16504928	-0.19711424	2.30185315	9.73778648	1.66401171	0.54439760	9.24239395	-0.36736118	-0.99968848	0.86481481	-4.54073704	8.78510293	5.92115785	1.36724718	10.33349492
4767	47.66000000	7.47020538	2.38608715	4.58018670	8.23519353	0.26036203	3.83390432	6.21163105	4.58295722	1.63345960	8.41023540	-0.25680751	2.45755241	9.47188677	2.16387970	0.32950152	9.36195695	0.76797470	-1.01807372	1.18002213	-4.16703442	9.06855015	5.54799479	1.50654800	10.56285409
4768	47.67000000	7.64899537	2.41241842	4.60945544	7.09854964	0.32945916	3.83375844	6.50845548	4.86000452	1.15172295	8.76338066	-0.25459375	2.46400992	9.22546180	2.49068517	0.37663592	9.36466928	1.65656097	-1.21767399	1.73766176	-3.58072382	9.48564975	5.56899940	1.80473725	10.45282191
4769	47.68000000	7.83536563	2.61082165	4.62496908	6.46525945	-0.04974382	3.68039698	7.00096909	4.68339555	0.82296365	9.06848971	-0.35975070	2.28110640	9.47476541	2.70493894	0.29894553	9.27039574	1.97682129	-1.44050906	2.40746027	-2.46485811	9.91691317	5.69345040	1.99538702	10.48309456
4770	47.69000000	8.01618731	2.93075200	4.67697082	6.34497009	-0.56693967	3.50283523	7.42244508	4.92469601	0.16675260	9.19035363	-0.16259538	2.12994262	9.80106832	2.44396752	-0.12153592	9.44334938	1.91265832	-1.52820779	2.70043338	-1.01319388	10.25292267	6.11763828	1.95695726	10.25161429
4771	47.70000000	8.17875764	3.12241484	4.69536258	6.64948998	-1.02378160	3.40038647	7.28535136	5.14572567	-0.05865966	9.36936474	0.59234822	2.15233373	9.89283112	1.95299620	-0.48319864	9.44990159	1.78818612	-1.70263239	3.17273082	0.38652562	10.66015300	5.28332035	1.98223858	10.61721241
4772	47.71000000	8.26639540	3.08830485	4.69371281	7.53769597	-1.40454027	3.37074162	6.88876856	5.60859554	0.00242305	9.46140929	0.54676301	2.15636424	9.94638840	1.63046522	-0.19322675	9.49205539	1.75122404	-1.93477141	3.88755557	1.13132409	10.95485747	5.06810489	2.21052878	10.78553670
4773	47.72000000	8.26864832	3.18766342	4.57612919	8.61372265	-1.54712122	3.25630574	6.81492381	6.27218520	-0.11910698	9.42253012	0.24426908	2.24337115	9.79343269	1.63995753	0.04931401	9.52481312	1.74928051	-1.76140533	4.36580645	1.13762316	10.91115844	5.62180855	1.94669890	10.67457265
4774	47.73000000	8.34848956	3.29339940	4.52512983	9.42458857	-1.51379562	3.00516951	6.97716924	6.71641318	-0.06777006	9.36396726	-0.18922444	2.40541229	9.97053573	1.18102840	-0.06177065	9.63274184	1.44658185	-1.42900831	4.97963191	0.70147375	10.82194717	5.74768327	1.64847241	10.49120983
4775	47.74000000	8.43161883	3.34254248	4.40988333	10.09484406	-1.24974570	2.83157087	6.95884770	7.15908016	0.22121383	9.35088825	-0.95167436	2.59237141	9.94787499	0.44899429	0.17197971	9.65272225	0.96855437	-1.56209548	5.91575861	0.37281608	10.83846422	5.58997059	1.59709801	10.64901623
